<?xml version="1.0" encoding="utf-8"?>
<!-- Generator: Adobe Illustrator 19.0.0, SVG Export Plug-In . SVG Version: 6.00 Build 0)  -->
<svg version="1.1" id="Layer_1" xmlns="http://www.w3.org/2000/svg" xmlns:xlink="http://www.w3.org/1999/xlink" x="0px" y="0px"
	 viewBox="0 0 50 50" style="enable-background:new 0 0 50 50;" xml:space="preserve">
<style type="text/css">
	.st0{fill:#1A1A1A;}
	.st1{fill:#FFFFFF;}
	.st2{fill:#ED1C24;}
	.st3{font-family:'OpenSans-Extrabold';}
	.st4{font-size:7.7431px;}
	.st5{font-family:'OpenSans-Light';}
</style>
<g id="XMLID_9_">
	<polygon id="XMLID_2_" class="st0" points="4,28.8 0,21.9 4,14.9 12.1,14.9 16.2,21.9 12.1,28.8 	"/>
	<polygon id="XMLID_8_" class="st1" points="12,21.1 9,21.1 9,18 7.4,18 7.4,21.1 4.3,21.1 4.3,22.7 7.4,22.7 7.4,25.7 9,25.7 
		9,22.7 12,22.7 	"/>
	<polygon id="XMLID_3_" class="st2" points="16.2,35.8 12.1,28.8 16.2,21.9 24.3,21.9 28.3,28.8 24.3,35.8 	"/>
	<rect id="XMLID_6_" x="16.5" y="28.1" class="st1" width="7.8" height="1.6"/>
	<text id="XMLID_4_" transform="matrix(1 0 0 1 15.798 20.8029)" class="st2 st3 st4">INSOMN</text>
	<text id="XMLID_5_" transform="matrix(1 0 0 1 28.3361 28.0377)" class="st5 st4">studio</text>
</g>
</svg>
