<?xml version="1.0" encoding="utf-8"?>
<!-- Generator: Adobe Illustrator 19.0.0, SVG Export Plug-In . SVG Version: 6.00 Build 0)  -->
<svg version="1.1" id="Layer_1" xmlns="http://www.w3.org/2000/svg" xmlns:xlink="http://www.w3.org/1999/xlink" x="0px" y="0px"
	 viewBox="0 0 590 376.7" style="enable-background:new 0 0 590 376.7;" xml:space="preserve">
<style type="text/css">
	.st0{fill:#BDCCD4;}
	.st1{fill:#A8B5BC;}
	.st2{fill:#EDD0BA;}
	.st3{fill:#D2B29B;}
	.st4{fill:#E1C6B3;}
	.st5{fill:#759BA5;}
	.st6{fill:#CEAF9B;}
	.st7{fill:#FFFFFF;}
	.st8{clip-path:url(#XMLID_50_);}
	.st9{fill:#4E4E4E;}
	.st10{fill:#1A1A1A;}
	.st11{clip-path:url(#XMLID_51_);}
	.st12{opacity:0.6;fill:#2AAAE2;}
	.st13{opacity:0.6;fill:#FFFFFF;}
	.st14{fill:#1072BA;}
	.st15{fill:#B29780;}
	.st16{fill:#05527D;}
	.st17{fill:#00A99D;}
	.st18{fill:#998776;}
	.st19{fill:#CDCCCC;}
	.st20{fill:#E6E6E5;}
	.st21{fill:#F3F3F3;}
	.st22{fill:#EC2227;}
	.st23{fill:#C1282D;}
	.st24{fill:#B4B4B4;}
	.st25{fill:#89AEB8;}
	.st26{fill:none;stroke:#998776;stroke-miterlimit:10;}
	.st27{fill:#D6D6E2;}
	.st28{fill:#E4E4EF;}
</style>
<g id="XMLID_960_">
	<rect id="XMLID_1172_" y="282.7" class="st0" width="590" height="19"/>
	<rect id="XMLID_1171_" x="15" y="301.7" class="st0" width="559" height="75"/>
	<rect id="XMLID_1170_" x="15" y="301.7" class="st1" width="559" height="10"/>
	<polygon id="XMLID_1169_" class="st2" points="280.2,60.5 270.7,45.7 227,40.7 183.7,45.7 171.7,58.7 169.9,77.5 174,117.7 
		174,126.7 178.5,140.5 188.2,164 218,182 227,183.2 236.3,182 266.4,164 275.9,140.5 280,126.7 280,117.7 284.4,77.5 	"/>
	<path id="XMLID_1168_" class="st2" d="M220.9,101.1c0-0.4,0.1-0.9,0.1-1.3C220.7,100.3,220.8,100.7,220.9,101.1z"/>
	<path id="XMLID_1167_" class="st2" d="M225.7,101.1c0.2-1,0.3-2.2,0.3-3.4C225.5,98.7,225.5,100,225.7,101.1z"/>
	<path id="XMLID_1166_" class="st3" d="M226,94.7c-1,2,0,6-4,6c1-2-2-2-2-4c0,3-1,5-2,7c-5-5-11-9-19-8c6,2,14,4,13,11c-3,2-5,4-9,4
		c4,1,7-1,11-2c1,4-4,6-4,9c4.7-4.7,10.3-9.4,10.9-16.7c-0.2-0.3-0.2-0.7,0.1-1.3c0,0.4,0,0.9-0.1,1.3c0.4,0.8,1.8,1.3,1.1,2.7
		c2.4,0,3.4-1.1,3.7-2.6c-0.2-1.1-0.2-2.4,0.3-3.4c0,1.2,0,2.4-0.3,3.4c0.2,1.1,0.8,2.1,1.3,2.6c2,1,4-1,6-2
		C227,104.7,228,98.7,226,94.7z"/>
	<path id="XMLID_1165_" class="st3" d="M244,104.7c-3-2,2-4,4-7c-4,2-7,6-12,4c0,4-1,8,3,10c0-2,0-3-1-4c5,2,11,6,17,4
		C250,111.7,247,107.7,244,104.7z"/>
	<path id="XMLID_1164_" class="st4" d="M280,117.7l3.9-35.7c-1.8,1.1-3.5,2.7-4.9,4.7c0,0,1-2,0-3c0,14.4-5.8,31,0.4,44.9l0.6-1.9
		V117.7z"/>
	<path id="XMLID_1163_" class="st4" d="M178,90.7c0-6.2-4.3-12.5-7.6-18.7l-0.5,5.5l4.1,40.2v9l1.3,4.1c0.2-0.4,0.5-0.7,0.7-1.1
		C178,116.7,177,103.7,178,90.7z"/>
	<path id="XMLID_1162_" class="st2" d="M183.1,87.6c0-0.3-0.1-0.5-0.1-0.8C183,87.2,183,87.4,183.1,87.6z"/>
	<path id="XMLID_1157_" class="st2" d="M280.2,60.5l-9.6-14.7l-43.7-5l-43.2,5l-12.1,13L170.4,72c3.3,6.2,7.6,12.5,7.6,18.7
		c-1,13,0,26-2,39c-0.2,0.4-0.4,0.7-0.7,1.1l3.2,9.6l9.7,23.5l29.7,18l9,1.3l9.3-1.3l30.1-18l9.5-23.5l3.5-11.9
		c-6.2-13.9-0.4-30.4-0.4-44.9c1,1,0,3,0,3c1.4-2.1,3.1-3.7,4.9-4.7l0.5-4.5L280.2,60.5z M220.9,101.1c-0.6,7.2-6.2,12-10.9,16.7
		c0-3,5-5,4-9c-4,1-7,3-11,2c4,0,6-2,9-4c1-7-7-9-13-11c8-1,14,3,19,8c1-2,2-4,2-7c0,2,3,2,2,4c4,0,3-4,4-6c2,4,1,10,7,7
		c-2,1-4,3-6,2c-0.5-0.5-1-1.5-1.3-2.6c-0.4,1.5-1.3,2.6-3.7,2.6C222.7,102.3,221.4,101.9,220.9,101.1z M239,111.7c-4-2-3-6-3-10
		c5,2,8-2,12-4c-2,3-7,5-4,7c3,3,6,7,11,7c-6,2-12-2-17-4C239,108.7,239,109.7,239,111.7z M183.1,87.6c-0.1-0.1-0.1-0.4-0.1-0.8
		C183,87,183.1,87.3,183.1,87.6z"/>
	<path id="XMLID_1154_" class="st2" d="M280.2,60.5l-9.6-14.7l-43.7-5l-43.2,5l-12.1,13L170.4,72c3.3,6.2,7.6,12.5,7.6,18.7
		c-1,13,0,26-2,39c-0.2,0.4-0.4,0.7-0.7,1.1l3.2,9.6l9.7,23.5l29.7,18l9,1.3l9.3-1.3l30.1-18l9.5-23.5l3.5-11.9
		c-6.2-13.9-0.4-30.4-0.4-44.9c1,1,0,3,0,3c1.4-2.1,3.1-3.7,4.9-4.7l0.5-4.5L280.2,60.5z M269,89.7c2,1,4-2,4-1c1,13-1,27-4,40
		c2-1,4-2,6-3c-6,12-10,24-20,33c-20,15-50,14-66-5c-13-14-2-33-4-51c-0.9-4.7-1-10.4-1.9-15.2c-0.1-0.1-0.1-0.4-0.1-0.8
		c0.1,0.3,0.1,0.5,0.1,0.8c0.3,0.4,1.1-0.6,1.9,0.2c-1.5-2.9-1.3-6.9-3.1-10c-0.8-0.4-1.5-1.1-1.9-2c0.5,0.9,1.1,1.6,1.9,2
		c-0.7-1.2-1.6-2.2-2.9-3c1.4,0.8,2.3,1.9,2.9,3c0.9,0.5,2,0.5,3.1,0c3-2,3-7,4-10c2,4,2,8,5,12c4-4,9-8,14-12c-2,4-2,9-3,14
		c13-3,26-6,36-15c-2,5-3,11-5,16c12-3,22-11,31-18c0,3,0,7,0,10c3-1,6-2,9-4C276,77.7,272,83.7,269,89.7z"/>
	<path id="XMLID_1153_" class="st5" d="M307.4,58.2c0,0-2.4-12.5-15.8-16.2c0,0,6.8-6.3,14.2-6.9c0.6-0.1,1.1-0.1,1.7-0.1
		c0,0-15.6-5.7-26.3,1.3c0,0-0.3-2.3-0.9-5.2c-0.8-3.8-2.3-8.5-4.7-10.8c0,0-0.3,6.2-3.1,10.7c0,0-1.3-6.7-13.5-24.2
		c0,0,4.4,9,0.7,22.5c0,0,1.5-10-15.8-22.5c0,0,2.2,7,0.5,10.2c0,0-5.8-3.5-6.8-7.2c0,0-2.4,11.5-6.6,14c0,0-3.7-10-7.1-12.2
		C220.5,9.2,207.1,0,203.9,0c0,0,1,1.2,2.3,2.9c2.6,3.4,6.7,8.9,7,11.1c0.5,3.2-3.2,15-3.2,15s-1.8-3.3-4.6-6.8
		c-2.4-3-5.7-6.1-9.2-7.2c-0.4-0.1-0.7-0.2-1.1-0.3c0,0,4,4.6-5.4,20c0,0-3.5-10.3-8.2-11.9c-0.1,0-0.2-0.1-0.3-0.1
		c0,0,2.4,9.7-7.3,23.2c0,0-6.2-6-9.8-5.2c0,0,2.1,7.2,0,18.7c0,0-6.1-4.2-9.8-7.5c0,0,4.4,13.8,6.1,22.7c0.5,2.5,0.7,4.6,0.6,6
		l9.5,8h4.9l0.3-0.8l2.6-7.4l-0.4-0.5L173,75V60.7l7.1,8.8l1,1.2l8.2-13.9l1.7-2.9c0,0,5.2,9.5,2.7,16.9c0,0,0.3-0.2,0.8-0.4
		c2.2-1.2,8.5-4.8,14.4-9.2c4-3,7.8-6.3,10.2-9.5c0,0-2.7,15.2-7,19.2c0,0,1.1-0.2,2.9-0.8c4.4-1.3,13.1-4.3,22-10
		c4.6-2.9,9.2-6.5,13.3-10.9c0,0,0.7,13.5-2.9,19.2c0,0,0.2-0.1,0.5-0.2c2.2-0.9,11.1-4.7,16.4-11c2-2.3,3.5-5,4-8
		c0,0,3.9,10,2.4,21c0,0,0.4-0.2,0.9-0.6c2-1.3,6.4-4.6,7.3-8.7c0,0,2.4,8.1,2.1,10.6c0,0,1,6.6-0.7,7.1l-2.3,4.7l-0.9,1.8l5,4.2
		l12.3-8.9l0-8.8c0,0-0.2-1.3-0.6-2.9c-0.6-2.8-1.7-6.6-2.6-6.6c0,0,8.7,1,12.4,6.2c0,0-2.1-9.2-8.9-14.7
		C294.7,53.7,301.8,53.5,307.4,58.2z"/>
	<g id="XMLID_1147_">
		<path id="XMLID_1152_" class="st2" d="M292.6,80.2c-5.2-1.3-9.9,5.6-9.9,5.6l-2.4,25.2l0,0.3l-1,10.2c1.3,2,6-0.8,8.7-1.7
			c2.7-1,9.5-21.2,11-26.2C300.6,88.5,297.8,81.5,292.6,80.2z"/>
		<path id="XMLID_1151_" class="st3" d="M285,91.7c1-1,2,1,3,1c-1-5,3-10,8-7c-2-1-3-3-5-2c-10,5-7,16-8,25c0,0.8-1.2,2.1-2.7,2.3
			l0,0.3C287.8,112,281.3,97.3,285,91.7z"/>
		<path id="XMLID_1148_" class="st2" d="M292.6,80.2c-5.2-1.3-9.9,5.6-9.9,5.6l-2.4,25.2c1.5-0.1,2.7-1.5,2.7-2.3c1-9-2-20,8-25
			c2-1,3,1,5,2c-5-3-9,2-8,7c-1,0-2-2-3-1c-3.7,5.5,2.8,20.3-4.7,19.6l-1,10.2c1.3,2,6-0.8,8.7-1.7c2.7-1,9.5-21.2,11-26.2
			C300.6,88.5,297.8,81.5,292.6,80.2z M292,104.7c3.8-5.6,2.2-11.3,1.2-16.9c-0.1,0-0.1-0.1-0.2-0.1c0.1,0,0.1,0.1,0.2,0.1
			c-0.1-0.4-0.1-0.7-0.2-1.1c0.1,0.4,0.1,0.7,0.2,1.1C300.9,91.9,296,100.8,292,104.7z"/>
	</g>
	<g id="XMLID_1140_">
		<path id="XMLID_1146_" class="st2" d="M161.2,80.2c5.2-1.3,9.9,5.6,9.9,5.6l2.4,25.2l0,0.3l1,10.2c-1.2,2-6-0.8-8.7-1.7
			c-2.7-1-9.5-21.2-11-26.2C153.2,88.5,156,81.5,161.2,80.2z"/>
		<path id="XMLID_1145_" class="st3" d="M168.8,91.7c-1-1-2,1-3,1c1-5-3-10-8-7c2-1,3-3,5-2c10,5,7,16,8,25c0,0.8,1.2,2.1,2.7,2.3
			l0,0.3C166.1,112,172.5,97.3,168.8,91.7z"/>
		<path id="XMLID_1144_" class="st2" d="M158.8,100.2c0.2,0.8,0.5,1.7,1.2,2.6C159.6,101.9,159.2,101,158.8,100.2z"/>
		<path id="XMLID_1141_" class="st2" d="M173.5,111.3c-7.5,0.7-1-14-4.7-19.6c-1-1-2,1-3,1c1-5-3-10-8-7c2-1,3-3,5-2c10,5,7,16,8,25
			c0,0.8,1.2,2.1,2.7,2.3l-2.4-25.2c0,0-4.6-6.8-9.9-5.6c-5.2,1.2-8,8.2-6.5,13.2c1.5,5,8.2,25.2,11,26.2c2.7,1,7.5,3.7,8.7,1.7
			L173.5,111.3z M160,102.7c-0.6-0.9-1-1.7-1.2-2.6c-1.8-3.8-3.6-7.7-0.8-12.1c-0.3-0.1-0.7-0.2-1.1-0.3c0.4,0.1,0.7,0.2,1.1,0.3
			c0.3-0.4,0.6-0.8,0.9-1.3c-0.4,0.4-0.7,0.8-0.9,1.3c6.9,1.9-0.4,6.6,0.8,12.1C159.2,101,159.6,101.9,160,102.7z"/>
	</g>
	<g id="XMLID_1130_">
		<path id="XMLID_1139_" class="st6" d="M239.4,103.7c0,0,5.2-4.5,9.4-6c4.1-1.5,24.2-2,24.2-2s-1.9,6.1-1.1,9.2
			c0,0-3.8,3.7-13.2,3.9C249.2,109,240.4,109.9,239.4,103.7z"/>
		<path id="XMLID_1138_" class="st7" d="M239.4,103.7c0,0,4.2-2.5,8.4-4c4.1-1.5,24.8-2.3,24.8-2.3s-1.4,4.4-0.7,7.5
			c0,0-3.8,3.7-13.2,3.9C249.2,109,240.4,109.9,239.4,103.7z"/>
		<g id="XMLID_1131_">
			<defs>
				<path id="XMLID_1132_" d="M239.4,103.7c0,0,4.2-2.5,8.4-4c4.1-1.5,24.8-2.3,24.8-2.3s-1.4,4.4-0.7,7.5c0,0-3.8,3.7-13.2,3.9
					C249.2,109,240.4,109.9,239.4,103.7z"/>
			</defs>
			<clipPath id="XMLID_50_">
				<use xlink:href="#XMLID_1132_"  style="overflow:visible;"/>
			</clipPath>
			<g id="XMLID_1133_" class="st8">
				<circle id="XMLID_1137_" class="st9" cx="251.4" cy="106.7" r="5.8"/>
				<circle id="XMLID_1136_" class="st10" cx="251.4" cy="106.7" r="3.2"/>
				<circle id="XMLID_1135_" class="st7" cx="250.2" cy="104.6" r="1.2"/>
				<circle id="XMLID_1134_" class="st7" cx="252.6" cy="105.4" r="0.8"/>
			</g>
		</g>
	</g>
	<g id="XMLID_1120_">
		<path id="XMLID_1129_" class="st6" d="M216.5,103.7c0,0-5.2-4.5-9.4-6c-4.1-1.5-24.2-2-24.2-2s1.9,6.1,1.1,9.2
			c0,0,3.8,3.7,13.2,3.9C206.6,109,215.5,109.9,216.5,103.7z"/>
		<path id="XMLID_1128_" class="st7" d="M216.5,103.7c0,0-4.2-2.5-8.4-4c-4.1-1.5-24.8-2.3-24.8-2.3s1.4,4.4,0.7,7.5
			c0,0,3.8,3.7,13.2,3.9C206.6,109,215.5,109.9,216.5,103.7z"/>
		<g id="XMLID_1121_">
			<defs>
				<path id="XMLID_1122_" d="M216.5,103.7c0,0-4.2-2.5-8.4-4c-4.1-1.5-24.8-2.3-24.8-2.3s1.4,4.4,0.7,7.5c0,0,3.8,3.7,13.2,3.9
					C206.6,109,215.5,109.9,216.5,103.7z"/>
			</defs>
			<clipPath id="XMLID_51_">
				<use xlink:href="#XMLID_1122_"  style="overflow:visible;"/>
			</clipPath>
			<g id="XMLID_1123_" class="st11">
				<circle id="XMLID_1127_" class="st9" cx="204.4" cy="106.7" r="5.8"/>
				<circle id="XMLID_1126_" class="st10" cx="204.5" cy="106.7" r="3.2"/>
				<circle id="XMLID_1125_" class="st7" cx="205.6" cy="104.6" r="1.2"/>
				<circle id="XMLID_1124_" class="st7" cx="203.3" cy="105.4" r="0.8"/>
			</g>
		</g>
	</g>
	<g id="XMLID_1103_">
		<path id="XMLID_1119_" class="st12" d="M211,84.7h-33c0,0-8.9,0-13.6,8.5c-4.7,8.5,3.1,20.6,10.1,24.4c7,3.7,31.2,8.3,40-0.2
			c8.7-8.5,10.5-13.4,9.7-20.4C224.2,97.1,223,84.7,211,84.7z"/>
		<path id="XMLID_1118_" class="st12" d="M244.5,84.7h33c0,0,8.9,0,13.6,8.5c4.7,8.5-3.1,20.6-10.1,24.4c-7,3.7-31.2,8.3-40-0.2
			c-8.7-8.5-10.5-13.4-9.7-20.4C231.2,97.1,232.5,84.7,244.5,84.7z"/>
		<path id="XMLID_1117_" class="st13" d="M207.3,84.7h-5.1c-3.8,7-7.8,15.4-13.2,22.5C196.2,100.9,201.9,92.7,207.3,84.7z"/>
		<path id="XMLID_1116_" class="st13" d="M212.5,84.3c-10.3,11.8-20.3,23.8-30.2,35.9c1.6,0.4,3.3,0.8,5.1,1.1
			c12.2-9.3,23.9-19.2,35.5-29.4C221.3,88.7,218.4,84.9,212.5,84.3z"/>
		<path id="XMLID_1115_" class="st13" d="M250,105.7c3-5,7-9,9-14c-8.1,6.5-16.2,12.3-24.3,18.5c1.5,2.1,3.6,4.5,6.3,7.1
			c0.9,0.9,2.1,1.7,3.3,2.3c5.1-6.7,10.3-13.6,14.7-20.9C256,101.7,254,104.7,250,105.7z"/>
		<path id="XMLID_1114_" class="st13" d="M263,109.7c9.1-6.1,17.2-13.2,25.3-20.4c-0.9-0.9-1.9-1.7-2.8-2.3
			C278.8,95.4,269.3,101,263,109.7z"/>
		<g id="XMLID_1105_">
			<path id="XMLID_1113_" class="st14" d="M224.2,97.1c0,0-1.3-12.3-13.2-12.3h-33c0,0-8.9,0-13.6,8.5c-1.1,2-1.5,4-1.4,6.3
				c0.1-1.7,0.5-3.1,1.4-4.6c4.7-8,13.6-8.2,13.6-8.2h33c12,0,13.2,11.7,13.2,11.7c0.1,0.7,0.1,1.3,0.1,2
				C224.4,99.3,224.4,98.2,224.2,97.1z"/>
			<path id="XMLID_1112_" class="st14" d="M189.5,121.6c4.8,0.7,10.1,0.9,14.7,0.2C199.6,122.4,194.3,122.2,189.5,121.6z"/>
			<path id="XMLID_1111_" class="st14" d="M244.5,86.7h33c0,0,8.9,0.1,13.6,8.1c0.9,1.5,1.3,3,1.4,4.7c0.1-2.2-0.3-4.2-1.4-6.2
				c-4.7-8.5-13.6-8.6-13.6-8.6h-33c-12,0-13.2,12.3-13.2,12.3c-0.1,1.2-0.2,2.1-0.1,3.2c0-0.6,0.1-1.1,0.1-1.8
				C231.2,98.5,232.5,86.7,244.5,86.7z"/>
			<path id="XMLID_1110_" class="st14" d="M251.3,121.8c4.6,0.7,9.8,0.5,14.7-0.2C261.1,122.2,255.9,122.4,251.3,121.8z"/>
			<path id="XMLID_1109_" class="st14" d="M214.5,117.4c-2.5,2.4-6.1,3.7-10.3,4.4c4.2-0.6,7.9-1.9,10.3-4.1
				c7.9-7.2,10.1-11.8,9.9-17.5C224.2,105.6,221.8,110.3,214.5,117.4z"/>
			<path id="XMLID_1108_" class="st14" d="M163,99.4c-0.4,7.3,5.8,15.5,11.5,18.3c2.9,1.4,8.6,3,15,3.9c-6.4-0.9-12.1-2.5-15-4.1
				C169.1,114.6,163.3,106.8,163,99.4z"/>
			<path id="XMLID_1107_" class="st14" d="M281,117.5c-2.9,1.5-8.6,3.2-15,4.1c6.4-0.8,12.1-2.4,15-3.9c5.7-2.9,11.9-11.1,11.5-18.3
				C292.2,106.8,286.4,114.6,281,117.5z"/>
			<path id="XMLID_1106_" class="st14" d="M231.1,100.1c-0.2,5.7,2,10.3,9.9,17.5c2.5,2.3,6.1,3.5,10.3,4.1c-4.2-0.6-7.9-2-10.3-4.4
				C233.7,110.3,231.3,105.6,231.1,100.1z"/>
		</g>
		<polygon id="XMLID_1104_" class="st14" points="227.5,93.7 226.6,93.7 222.9,93.7 223.8,97.7 226.6,97.7 227.5,97.7 231.7,97.7 
			232.6,93.7 		"/>
	</g>
	<g id="XMLID_1100_">
		<path id="XMLID_28_" class="st15" d="M222.4,121.5c0,0-0.2-0.1-0.6-0.3c-0.4-0.1-0.9-0.5-1.6-0.6c-0.4,0-0.8,0.1-1.1,0.3
			c-0.4,0.2-0.8,0.5-1.2,0.8c-0.8,0.6-1.7,1.5-2.4,2.5c-0.7,1-1.2,2.4-0.8,3.7c0,0.1,0,0.2,0.1,0.2l0.1,0.3c0.1,0.2,0.1,0.4,0.2,0.5
			c0.2,0.3,0.3,0.6,0.6,0.8c0.5,0.6,1.1,1,1.7,1.5c1.3,0.9,2.8,1.6,4.4,2.1c0.8,0.3,1.6,0.5,2.4,0.7c0.8,0.2,1.7,0.3,2.5,0.4
			c0.8,0.1,1.7,0.2,2.5,0.1c0.4,0,0.7-0.1,1.2-0.2c0.4-0.1,0.9-0.2,1.3-0.3c1.7-0.3,3.2-0.7,4.6-1.5c1.4-0.7,2.5-1.7,3.2-3
			c0.7-1.2,1-2.6,0.8-3.8c-0.1-1.2-0.7-2.3-1.5-2.9c-0.8-0.6-1.7-0.8-2.5-0.8c-0.7-0.1-1.3,0.1-1.7,0.2c-0.4,0.2-0.5,0.3-0.5,0.3
			s0.1-0.2,0.5-0.4c0.4-0.2,1-0.4,1.7-0.4c0.4,0,0.8,0.1,1.3,0.1c0.5,0.1,1,0.3,1.4,0.6c0.9,0.6,1.6,1.8,1.8,3.1
			c0.2,1.3,0,2.9-0.8,4.2c-0.7,1.4-2,2.6-3.4,3.4c-1.5,0.8-3.2,1.3-4.8,1.6c-0.4,0.1-0.8,0.2-1.2,0.3c-0.4,0.1-0.9,0.2-1.4,0.2
			c-0.9,0.1-1.8,0-2.7-0.1c-0.9-0.1-1.7-0.2-2.6-0.4c-0.9-0.2-1.7-0.5-2.5-0.8c-1.6-0.6-3.2-1.3-4.5-2.3c-0.7-0.5-1.3-1-1.8-1.7
			c-0.3-0.3-0.5-0.7-0.7-1.1c-0.1-0.2-0.1-0.4-0.2-0.5l-0.1-0.3c-0.1-0.2-0.1-0.2-0.1-0.3c-0.2-0.8-0.1-1.6,0.1-2.3
			c0.2-0.7,0.6-1.3,1-1.9c0.8-1.1,1.7-1.9,2.6-2.5c0.4-0.3,0.9-0.6,1.3-0.8c0.4-0.2,0.9-0.3,1.3-0.2c0.8,0.1,1.3,0.5,1.6,0.7
			C222.2,121.3,222.4,121.5,222.4,121.5z"/>
	</g>
	<path id="XMLID_1099_" class="st16" d="M367.7,207.7c0,0-9.8,32.3-25.3,43.7l-5.4-8.7l18.2-35H367.7z"/>
	<path id="XMLID_1098_" class="st2" d="M514,227.7c0,0,7.4-0.1,5.1,3.5c-2.3,3.6-8.5,4.5-8.5,4.5S511.8,227.6,514,227.7z"/>
	<path id="XMLID_1097_" class="st17" d="M515,227.7c-1-1-9.7-1.9-20.8-1.9c-11.1,0-20.1,0.9-20.8,1.9H473v39h0.4c0,0,0,0.3,0,0.4
		c0,1.1,9.3,2.2,20.9,2.2s20.8-1.1,20.8-2.2c0,0-0.1-0.3-0.1-0.3V227.7z"/>
	<path id="XMLID_1096_" class="st2" d="M362.1,210.4c0,0,6.2,6.2,10.7,12.9c0,0,10.5-5,30.2,0c19.7,5,30,11,47.8,12.8
		c0,0,7.7-1.7,10.7-4.8c3-3.2,7.2-6.2,11.3-5c4.2,1.2,8.5,4,12.3,4.3c3.8,0.3,4.7,1,3.8,4c-0.8,3-3.5,5.8-8.7,3.7l-4.4-0.5
		c0,0-1.9,4.8-2.9,5.2v22.8c0,0-5.4,2.3-12.7,0c-7.3-2.3-7-6.7-12.9-4.5s-36.9,4.5-61.8,3.2c-24.8-1.3-43.9-18.5-43.9-18.5
		S336.7,222.6,362.1,210.4z"/>
	<path id="XMLID_1095_" class="st18" d="M473,244.1c-0.5,0.4-1.2,0.8-2,1.1c-0.4,0.1-0.8,0.3-1.2,0.3c-0.4,0.1-0.8,0.1-1.1,0.1
		c-0.3,0-0.6,0-0.8,0c-0.2,0-0.3,0-0.3,0s0.1,0,0.3,0c0.2,0,0.4,0,0.7-0.1c0.3-0.1,0.7-0.2,1-0.3c0.4-0.1,0.7-0.3,1.1-0.5
		c0.7-0.4,1.3-0.9,1.7-1.3c0.2-0.2,0.4-0.6,0.5-0.7C473,243.1,473,243.1,473,244.1z"/>
	<path id="XMLID_1094_" class="st17" d="M514,238.6l8-4.3c0,0,3.6-1.8,6.6,0c3,1.8,6.2,7,4.1,12.9c-2.2,5.8-9.6,12.2-18.6,13.9v2
		c0,0,6.7,0.1,12.6-3.8c5.8-3.9,10.6-11.5,10.9-18.4c0.3-6.9-6.4-12.9-11.7-12.7c-5.3,0.1-11.7,4.7-11.7,4.7V238.6z"/>
	<path id="XMLID_1093_" class="st2" d="M513.6,238.6c0,0-5,2.7-5,5.1c0,2.4,1.6,4.3,2,4.1c0,0-2.8,1.8-3,3.3c-0.1,1.5,0,3.9,3,3.9
		c0,0-1.5,2,0,3.7c1.5,1.8,3,0.8,3,0.8s3.9-1.5,5-4.7c1.1-3.3-0.8-4.7-0.8-4.7s1.8-2.4,1.1-5.1c-0.6-2.7-1.8-2.7-1.8-2.7
		s2-1.5,1.2-3.7c-0.7-2.1-1.6-1.7-1.6-1.7L513.6,238.6z"/>
	<g id="XMLID_1090_">
		<path id="XMLID_26_" class="st18" d="M510.7,247.8c0,0,0.3-0.5,0.8-1.1c0.5-0.6,1.3-1.4,2.1-2.1c0.8-0.7,1.7-1.3,2.4-1.7
			c0.7-0.4,1.2-0.6,1.2-0.6s-0.3,0.5-0.8,1.1c-0.5,0.6-1.3,1.4-2.1,2.1c-0.8,0.7-1.7,1.3-2.4,1.7
			C511.2,247.6,510.7,247.8,510.7,247.8z"/>
	</g>
	<g id="XMLID_1087_">
		<path id="XMLID_24_" class="st18" d="M510.7,254.9c0,0,0.5-0.3,1.2-0.7c0.7-0.4,1.6-0.9,2.5-1.5c0.4-0.3,0.9-0.6,1.3-0.9
			c0.4-0.3,0.8-0.6,1.1-0.9c0.3-0.3,0.6-0.5,0.8-0.6c0.2-0.2,0.3-0.2,0.3-0.2s0,0.1-0.2,0.4c-0.1,0.2-0.3,0.6-0.5,0.9
			c-0.1,0.2-0.2,0.4-0.4,0.6c-0.2,0.2-0.3,0.4-0.5,0.6c-0.2,0.2-0.4,0.4-0.6,0.6c-0.2,0.2-0.4,0.4-0.7,0.5c-0.5,0.3-1,0.6-1.5,0.8
			c-0.5,0.2-1,0.4-1.4,0.5C511.3,255,510.7,254.9,510.7,254.9z"/>
	</g>
	<g id="XMLID_1068_">
		<g id="XMLID_1084_">
			<path id="XMLID_22_" class="st19" d="M479.5,222.1c0,0-0.4-0.4-1-1.1c-0.6-0.7-1.6-1.7-2.5-3.1c-0.4-0.7-0.8-1.6-0.9-2.6
				c-0.1-0.5-0.1-1-0.1-1.5c0-0.5,0.1-1.1,0.2-1.6c0.2-1.1,0.9-2.1,1.6-2.9c0.7-0.8,1.4-1.6,1.9-2.5c0.2-0.4,0.5-0.9,0.6-1.4
				l0.3-0.8c0.1-0.3,0.1-0.5,0.2-0.7c0.2-1,0.2-2,0-2.9c-0.5-1.9-1.6-3.4-2.4-4.8c-0.4-0.7-0.7-1.4-1-2c-0.2-0.6-0.4-1.2-0.5-1.7
				c-0.1-0.5-0.1-0.8-0.1-1.1c0-0.3,0-0.4,0-0.4s0,0.1,0.1,0.4c0.1,0.2,0.1,0.6,0.3,1.1c0.1,0.5,0.4,1,0.6,1.6
				c0.3,0.6,0.7,1.2,1.1,1.9c0.5,0.7,1,1.4,1.5,2.2c0.5,0.8,1,1.7,1.3,2.7c0.3,1,0.3,2.2,0.1,3.3c-0.1,0.3-0.1,0.6-0.2,0.8l-0.2,0.8
				l-0.1,0.4l-0.2,0.4c-0.1,0.3-0.2,0.5-0.4,0.8c-0.5,1-1.3,1.9-2,2.7c-0.3,0.4-0.7,0.8-0.9,1.2c-0.2,0.4-0.5,0.8-0.6,1.3
				c-0.1,0.5-0.2,0.9-0.2,1.4c0,0.5,0,1,0,1.4c0.1,0.9,0.4,1.7,0.7,2.4c0.7,1.4,1.6,2.5,2.1,3.2
				C479.2,221.7,479.5,222.1,479.5,222.1z"/>
		</g>
		<g id="XMLID_1081_">
			<path id="XMLID_20_" class="st19" d="M483.9,213.5c0,0,0,0-0.1-0.1c0,0-0.1-0.1-0.1-0.2c0-0.1-0.1-0.2-0.1-0.3
				c0-0.3,0.1-0.5,0.2-0.8c0.1-0.3,0.3-0.6,0.5-0.9c0.4-0.7,1.1-1.3,1.6-2.1c0.1-0.2,0.2-0.3,0.3-0.5c0.1-0.2,0.2-0.5,0.3-0.7
				c0.2-0.5,0.3-0.9,0.4-1.4c0.6-1.9,0.8-3.9,1-5.4c0.1-0.8,0.2-1.4,0.2-1.8c0.1-0.4,0.1-0.7,0.1-0.7s0.2,1,0.2,2.6
				c0,0.8,0,1.7-0.1,2.7c-0.1,1-0.3,2-0.6,3c-0.1,0.5-0.3,1-0.5,1.5c-0.1,0.2-0.2,0.5-0.3,0.7c-0.1,0.3-0.3,0.5-0.5,0.7
				c-0.7,0.8-1.3,1.3-1.9,1.9c-0.5,0.5-0.9,1-1,1.4c0,0.1,0,0.2,0,0.3c0,0.1,0,0.2,0.1,0.2C483.8,213.5,483.9,213.5,483.9,213.5z"/>
		</g>
		<g id="XMLID_1078_">
			<path id="XMLID_18_" class="st19" d="M489.7,221.3c0,0-0.1,0-0.2,0c-0.1,0-0.3-0.1-0.4-0.2c-0.4-0.3-0.6-0.9-0.6-1.7
				c-0.1-1.5,0.3-3.3,0.9-5.1c0.6-1.8,1.3-3.5,1.8-4.8c0.3-0.6,0.5-1.2,0.6-1.5c0.2-0.4,0.2-0.6,0.2-0.6s0,0.2,0,0.7
				c0,0.4-0.1,1-0.3,1.7c-0.3,1.4-0.9,3.1-1.4,4.9c-0.3,0.9-0.5,1.8-0.8,2.6c-0.2,0.8-0.4,1.6-0.5,2.3c0,0.3,0,0.6,0,0.9
				c0,0.3,0.1,0.5,0.2,0.6c0.1,0.2,0.2,0.3,0.3,0.3C489.6,221.2,489.7,221.3,489.7,221.3z"/>
		</g>
		<g id="XMLID_1075_">
			<path id="XMLID_16_" class="st19" d="M495.4,224.3c0,0,0-0.2,0.1-0.6c0-0.4,0.1-1,0.1-1.7c0.1-1.4,0.2-3.2,0.4-5.1
				c0.1-0.9,0.3-1.9,0.5-2.7c0.2-0.9,0.5-1.7,0.8-2.3c0.1-0.3,0.3-0.6,0.4-0.9c0.1-0.3,0.3-0.5,0.4-0.6c0.2-0.3,0.4-0.5,0.4-0.5
				s-0.1,0.2-0.2,0.6c-0.1,0.4-0.3,0.9-0.5,1.6c-0.2,0.7-0.3,1.4-0.4,2.3c-0.1,0.8-0.2,1.7-0.4,2.7c-0.2,1.8-0.5,3.7-0.8,5
				c-0.2,0.7-0.4,1.2-0.5,1.6C495.5,224.1,495.4,224.3,495.4,224.3z"/>
		</g>
		<g id="XMLID_1072_">
			<path id="XMLID_14_" class="st19" d="M504.2,218.8c0,0,0.1,0,0.3,0c0.2-0.1,0.4-0.3,0.5-0.6c0.3-0.7,0.3-1.7,0.4-2.9
				c0.1-1.2,0-2.7,0-4.2c0-1.6,0-3.2-0.1-4.9c0-1.7,0-3.3,0.1-4.9c0.1-1.6,0.2-3,0.4-4.3c0.2-1.2,0.5-2.3,0.9-2.9
				c0.2-0.3,0.4-0.6,0.5-0.7c0.1-0.1,0.2-0.2,0.2-0.2c0,0-0.4,0.3-0.6,0.9c-0.3,0.7-0.4,1.7-0.5,2.9c-0.1,1.2-0.1,2.7-0.1,4.2
				c0,1.6,0,3.2,0,4.9c0,1.7,0,3.3,0,4.9c0,1.6-0.2,3-0.3,4.3c-0.1,1.2-0.4,2.3-0.8,3c-0.2,0.3-0.4,0.5-0.7,0.6
				C504.3,218.8,504.2,218.8,504.2,218.8z"/>
		</g>
		<g id="XMLID_1069_">
			<path id="XMLID_8_" class="st19" d="M511.1,220.5c0,0,0,0,0.1,0c0.1,0,0.1-0.1,0.2-0.1c0.1-0.2,0.2-0.5,0.2-0.9
				c0.1-0.8,0-1.9,0-3.1c0-1.1,0-2.3,0.1-3.1c0-0.4,0.1-0.8,0.1-1c0-0.3,0-0.4,0-0.4s0.1,0.1,0.2,0.4c0.1,0.2,0.2,0.6,0.3,1
				c0.2,0.9,0.3,2,0.3,3.2c0,1.2-0.1,2.3-0.5,3.2c-0.2,0.4-0.4,0.8-0.6,0.9c-0.1,0.1-0.3,0.1-0.3,0
				C511.1,220.5,511.1,220.5,511.1,220.5z"/>
		</g>
	</g>
	<path id="XMLID_1067_" class="st20" d="M116,280.7H57.5c-3.3,0-6-2.7-6-6v0c0-3.3,2.7-6,6-6H116V280.7z"/>
	<path id="XMLID_1066_" class="st9" d="M118.5,280.7h-2h-59c-3.3,0-6-2.7-6-6c0-3.3,2.7-6,6-6h59h2h1.5v-2H57.5c-4.4,0-8,3.6-8,8
		c0,4.4,3.6,8,8,8H120v-2H118.5z"/>
	<g id="XMLID_1034_">
		<g id="XMLID_1047_">
			
				<rect id="XMLID_1065_" x="13.4" y="213.3" transform="matrix(0.9838 -0.1794 0.1794 0.9838 -41.1732 7.3174)" class="st21" width="12.9" height="35.9"/>
			<g id="XMLID_1048_">
				
					<rect id="XMLID_1064_" x="11.8" y="217" transform="matrix(-0.9838 0.1793 -0.1793 -0.9838 66.7025 428.4365)" class="st5" width="4.4" height="0.4"/>
				
					<rect id="XMLID_1063_" x="13.8" y="227.9" transform="matrix(-0.9838 0.1793 -0.1793 -0.9838 72.5636 449.5477)" class="st5" width="4.4" height="0.4"/>
				
					<rect id="XMLID_1062_" x="12.2" y="219.2" transform="matrix(-0.9838 0.1794 -0.1794 -0.9838 65.8777 432.8003)" class="st5" width="2.4" height="0.4"/>
				
					<rect id="XMLID_1061_" x="12.5" y="221.1" transform="matrix(-0.9838 0.1794 -0.1794 -0.9838 66.9434 436.6392)" class="st5" width="2.4" height="0.4"/>
				
					<rect id="XMLID_1060_" x="12.9" y="223.1" transform="matrix(-0.9837 0.1798 -0.1798 -0.9837 68.0948 440.4568)" class="st5" width="2.4" height="0.4"/>
				
					<rect id="XMLID_1059_" x="13.4" y="226.1" transform="matrix(-0.9837 0.1799 -0.1799 -0.9837 69.7048 446.2113)" class="st5" width="2.4" height="0.4"/>
				
					<rect id="XMLID_1058_" x="15.6" y="237.7" transform="matrix(-0.9838 0.1795 -0.1795 -0.9838 77.9346 468.7292)" class="st5" width="4.4" height="0.4"/>
				
					<rect id="XMLID_1057_" x="14.1" y="230" transform="matrix(-0.9838 0.1794 -0.1794 -0.9838 71.7338 453.9125)" class="st5" width="2.4" height="0.4"/>
				
					<rect id="XMLID_1056_" x="14.5" y="232" transform="matrix(-0.9838 0.1795 -0.1795 -0.9838 72.8097 457.7489)" class="st5" width="2.4" height="0.4"/>
				
					<rect id="XMLID_1055_" x="14.9" y="233.9" transform="matrix(-0.9837 0.1799 -0.1799 -0.9837 73.9679 461.5643)" class="st5" width="2.4" height="0.4"/>
				
					<rect id="XMLID_1054_" x="15.2" y="235.9" transform="matrix(-0.9838 0.1794 -0.1794 -0.9838 74.9308 465.4283)" class="st5" width="2.4" height="0.4"/>
				
					<rect id="XMLID_1053_" x="17.5" y="248.5" transform="matrix(-0.9838 0.1793 -0.1793 -0.9838 83.7438 489.8537)" class="st5" width="4.4" height="0.4"/>
				
					<rect id="XMLID_1052_" x="15.9" y="239.8" transform="matrix(-0.9838 0.1795 -0.1795 -0.9838 77.0699 473.1031)" class="st5" width="2.4" height="0.4"/>
				
					<rect id="XMLID_1051_" x="16.5" y="242.8" transform="matrix(-0.9838 0.1794 -0.1794 -0.9838 78.6466 478.8658)" class="st5" width="2.4" height="0.4"/>
				
					<rect id="XMLID_1050_" x="16.8" y="244.8" transform="matrix(-0.9838 0.1794 -0.1794 -0.9838 79.7108 482.7051)" class="st5" width="2.4" height="0.4"/>
				
					<rect id="XMLID_1049_" x="17.2" y="246.7" transform="matrix(-0.9837 0.1798 -0.1798 -0.9837 80.877 486.5179)" class="st5" width="2.4" height="0.4"/>
			</g>
		</g>
		<g id="XMLID_1040_">
			<path id="XMLID_1046_" class="st20" d="M19.7,244.6l-7.3,1.7l-4.1-17.7c-0.3-1.1,0.5-2.3,1.6-2.5l3.2-0.7
				c1.1-0.3,2.3,0.5,2.5,1.6L19.7,244.6z"/>
			
				<rect id="XMLID_1045_" x="10.7" y="231.2" transform="matrix(0.9745 -0.2242 0.2242 0.9745 -53.0821 9.2973)" class="st22" width="7.5" height="14.5"/>
			<g id="XMLID_1041_">
				<path id="XMLID_1042_" class="st23" d="M14.4,245.8l-3.3-14.1l3.4-0.8l3.3,14.1L14.4,245.8z M12.2,232l3,12.6l1.5-0.3l-3-12.6
					L12.2,232z"/>
			</g>
		</g>
		<g id="XMLID_1035_">
			<path id="XMLID_1039_" class="st19" d="M29.1,225.5c0,0,0.6-2.9,4.9-3c4.2-0.1,5.4,2.2,5.4,3s0.9,16.4,0.8,17.5
				c-0.1,1.1-10,0.8-10,0.8S29,233.8,29.1,225.5z"/>
			<path id="XMLID_1038_" class="st24" d="M30.9,223.3c0,0-1.4-6.6,2.6-6.9c4-0.3,3.2,6.5,3.2,6.5S35.3,224.5,30.9,223.3z"/>
			<g id="XMLID_1036_">
				<path id="XMLID_1037_" class="st14" d="M41.7,244.4c-2.6-3.9-0.9-8.6,0.4-12.3c0.4-1.2,0.8-2.4,1-3.3c0.1-0.8-0.1-1-0.2-1.1
					c-0.6-0.6-2.6-0.3-3.3-0.2l-0.1-1.5c0.3-0.1,3.3-1.3,4.8,0.2c0.5,0.5,1,1.4,0.8,2.9c-0.2,1.1-0.6,2.3-1.1,3.6
					c-1.2,3.3-2.6,7.4-0.6,10.5L41.7,244.4z"/>
			</g>
		</g>
	</g>
	<path id="XMLID_1033_" class="st5" d="M49.5,244.1c0-1.4-9.1-2.6-20.4-2.6c-11.3,0-20.4,1.2-20.4,2.6c0,0.1,0.1,0.3,0.3,0.4v38.2
		h40v-38.1C49.3,244.5,49.5,244.3,49.5,244.1z"/>
	<path id="XMLID_1032_" class="st5" d="M8.7,244.1c0,0.1,0.1,0.3,0.3,0.4v38.2h36.3C40,268.4,32.8,255,25.9,241.5
		C16.2,241.7,8.7,242.8,8.7,244.1z"/>
	<path id="XMLID_1031_" class="st25" d="M29.1,241.5c-1.1,0-2.2,0-3.3,0c6.9,13.5,14.2,26.9,19.4,41.2H49v-38.1
		c0.3-0.2,0.5-0.4,0.5-0.6C49.5,242.7,40.4,241.5,29.1,241.5z"/>
	<path id="XMLID_1030_" class="st16" d="M81.7,209.7c0,0,8.7,10,42.7,20l1.3-8.3L110,203.1L81.7,209.7z"/>
	<path id="XMLID_1029_" class="st2" d="M90.2,207.7c0,0-3.5,8.3-10.2,15.3c-6.7,7-8.7,16.7-4.3,25.7c4.3,9,6.5,12,6,14.3
		c-0.5,2.3,6.8,3.2,8.5,2.5c1.7-0.7,9.2,1.3,15.8-3.2c6.7-4.5,38.8-3,38.8-3s8.2-26.3-1-33.5c-9.2-7.2-32-18.8-32-18.8L90.2,207.7z"
		/>
	<path id="XMLID_1028_" class="st26" d="M87.5,216.4c0,0,11.7-8,26.9-1.9"/>
	<path id="XMLID_1027_" class="st14" d="M138.3,154.4c0,0-12,0.3-22.3,9.7c-10.3,9.3-25.7,42.7-34.3,45.7c0,0,19.7-6.3,44,11.7
		L138.3,154.4z"/>
	<path id="XMLID_1026_" class="st14" d="M337,173.7c0,0,19.3,32.3,30.7,34c0,0-12,1.7-23.3,26.7c0,0-4.3,13.3-2,17l-10-6.7
		L337,173.7z"/>
	<g id="XMLID_968_">
		<path id="XMLID_1025_" class="st27" d="M331.5,282.7H132.9c-4,0-6.9-3.1-6.9-7.1v-0.9h213v0.9C339,279.7,335.5,282.7,331.5,282.7z
			"/>
		<rect id="XMLID_1024_" x="133" y="274.7" class="st10" width="199" height="8"/>
		<path id="XMLID_1021_" class="st28" d="M326.1,281.2H138.3c-7,0-12.6-5.7-12.6-12.6V147.7c0-7,5.7-12.6,12.6-12.6h187.8
			c7,0,12.6,5.7,12.6,12.6v120.9C338.7,275.6,333.1,281.2,326.1,281.2z"/>
		<g id="XMLID_969_">
			<path id="XMLID_1020_" class="st10" d="M228.2,207.8c-0.5-0.6-0.7-0.7-1.4-0.4c-1,0.4-1.9,0.8-2.8,1.3c-0.1,0-0.1,0.1-0.3,0.1
				c0.3-1.8,1.4-2.9,2.9-3.6c-1.6,0.1-3.2,0.6-4.7,1.3c0.3-1.4,1.3-2.3,2.5-3.1c-1.6-0.3-3-0.7-4.4-1c1.4-0.7,2.9-0.7,4.4-0.5
				c-0.4-1.1-0.7-2.1-1.1-3.2c0,0,0,0,0.1-0.1c0.8,0.6,1.6,1.2,2.4,1.8c0-0.9,0-1.8-0.1-2.7c0.1,0,0.1,0,0.2,0c1,1.2,1.6,2.6,2.4,4
				c0.3-1.9,0.5-3.7,1.3-5.4c0.1,0,0.1,0,0.2,0c0.2,1.9,0.4,3.8,0.5,5.6c0.8-1.4,1.7-2.9,3.5-3.5c-0.4,0.8-0.8,1.6-1.1,2.4
				c-0.3,0.9-0.4,1.8-0.6,2.7c0,0.1,0,0.3-0.1,0.4C230.8,205.3,229.5,206.6,228.2,207.8z"/>
			<path id="XMLID_1019_" class="st10" d="M240.8,214.1c0.6,0,1.1-0.1,1.7-0.1c0,0.6,0.4,1.2-0.2,1.8c-0.4,0-0.8,0.1-1.3,0.1
				C240.9,215.3,240.8,214.7,240.8,214.1z"/>
			<path id="XMLID_1018_" class="st10" d="M233.4,207.7c-0.1-0.6-0.1-1.1-0.2-1.7c0.6-0.1,1.2-0.1,1.8-0.1c-0.1,0.6,0.4,1.2-0.2,1.8
				C234.4,207.7,233.9,207.7,233.4,207.7z"/>
			<path id="XMLID_1017_" class="st10" d="M242,209.7c0.1,0.5,0.1,0.9,0.2,1.3c-0.1,0.2-0.2,0.3-0.3,0.5c-0.4,0-0.8,0.1-1.3,0.1
				c-0.1-0.6-0.1-1.2-0.2-1.7C240.9,209.8,241.4,209.7,242,209.7z"/>
			<path id="XMLID_1016_" class="st10" d="M238.1,210c0.6-0.1,1.1-0.1,1.7-0.2c0.1,0.5,0.1,0.9,0.2,1.4c-0.3,0-0.3,0.1-0.2,0.4
				c-0.5,0-1,0.1-1.5,0.1C238.2,211.1,238.1,210.6,238.1,210z"/>
			<path id="XMLID_1015_" class="st10" d="M238.4,216.5c0.1,0.4,0.1,0.7,0.1,1c0.1,0.4-0.1,0.7-0.6,0.7c-0.4,0-0.7,0.1-1.1,0.1
				c-0.1-0.6-0.1-1.1-0.2-1.7C237.3,216.6,237.8,216.6,238.4,216.5z"/>
			<path id="XMLID_1014_" class="st10" d="M237.8,207.4c-0.1-0.6-0.1-1.1-0.2-1.7c0.6,0,1.2-0.1,1.8-0.1c0.1,0.5,0.1,0.9,0.2,1.3
				c-0.2,0-0.5,0-0.2,0.4C238.7,207.3,238.3,207.4,237.8,207.4z"/>
			<path id="XMLID_1013_" class="st10" d="M231.8,212.7c0.6,0,1.2-0.1,1.7-0.1c0.1,0.5,0.1,0.9,0.2,1.3c-0.3,0-0.4,0.1-0.2,0.4
				c-0.5,0-1,0.1-1.5,0.1C232,213.8,231.9,213.3,231.8,212.7z"/>
			<path id="XMLID_1012_" class="st10" d="M238.8,216c-0.1-0.6-0.1-1.1-0.2-1.7c0.6-0.1,1.1-0.1,1.7-0.2c0,0.6,0.4,1.2-0.2,1.8
				C239.7,216,239.3,216,238.8,216z"/>
			<path id="XMLID_1011_" class="st10" d="M238.2,215.7c-0.1,0.1-0.1,0.2-0.3,0.4c-0.4,0-0.8,0.1-1.3,0.1c-0.1-0.6-0.1-1.1-0.2-1.7
				c0.6-0.1,1.1-0.1,1.7-0.2C238.2,214.8,238.3,215.2,238.2,215.7C238.3,215.7,238.3,215.7,238.2,215.7z"/>
			<path id="XMLID_1010_" class="st10" d="M231,209.6c-0.1,0.2-0.2,0.3-0.3,0.6c-0.3,0-0.8,0.1-1.3,0.1c-0.1-0.6-0.1-1.1-0.2-1.7
				c0.6,0,1.1-0.1,1.7-0.1C230.9,208.9,231,209.3,231,209.6z"/>
			<path id="XMLID_1009_" class="st10" d="M234.3,218.6c-1.5,0.3-2-0.1-1.9-1.6c0.3,0,0.6-0.1,0.9-0.1c0.3,0,0.6,0,0.9-0.1
				C234.2,217.4,234.2,218,234.3,218.6z"/>
			<path id="XMLID_1008_" class="st10" d="M235.2,208.1c0.1,0.5,0.1,0.9,0.2,1.4c-0.4-0.1-0.3,0.1-0.3,0.3c-0.5,0-0.9,0.1-1.4,0.1
				c-0.1-0.6-0.1-1.1-0.2-1.7C234.1,208.2,234.6,208.1,235.2,208.1z"/>
			<path id="XMLID_1007_" class="st10" d="M237.8,207.8c0.6,0,1.1-0.1,1.7-0.1c0.1,0.4,0.1,0.9,0.2,1.3c-0.3,0-0.4,0.1-0.2,0.4
				c-0.5,0-1,0.1-1.5,0.1C238,209,237.9,208.4,237.8,207.8z"/>
			<path id="XMLID_1006_" class="st10" d="M232.9,210c-0.4,0-0.8,0.1-1.3,0.1c-0.1-0.6-0.1-1.1-0.2-1.7c0.6-0.1,1.1-0.1,1.7-0.2
				C233.1,208.8,233.3,209.4,232.9,210z"/>
			<path id="XMLID_1005_" class="st10" d="M231.4,212.7c0.1,0.5,0.1,0.9,0.2,1.3c-0.3,0-0.4,0.1-0.2,0.4c-0.5,0-1,0.1-1.5,0.1
				c-0.1-0.6-0.1-1.2-0.2-1.8C230.3,212.8,230.8,212.8,231.4,212.7z"/>
			<path id="XMLID_1004_" class="st10" d="M234,212.1c-0.1-0.6-0.1-1.1-0.2-1.7c0.6,0,1.1-0.1,1.7-0.1c0.1,0.5,0.1,0.9,0.2,1.4
				c-0.3,0-0.4,0.1-0.2,0.4C234.9,212,234.5,212,234,212.1z"/>
			<path id="XMLID_1003_" class="st10" d="M233.2,205.6c-0.1-0.6-0.1-1.1-0.2-1.6c0.6,0,1.2-0.1,1.8-0.1c0.1,0.5,0.1,1,0.2,1.6
				C234.4,205.5,233.8,205.5,233.2,205.6z"/>
			<path id="XMLID_1002_" class="st10" d="M237.6,210c0.1,0.5,0.1,0.9,0.2,1.4c-0.3,0-0.5,0.1-0.2,0.4c-0.5,0-1,0.1-1.5,0.1
				c-0.1-0.6-0.1-1.1-0.2-1.7C236.5,210.1,237,210.1,237.6,210z"/>
			<path id="XMLID_1001_" class="st10" d="M237.9,212.2c0.1,0.4,0.2,0.8,0.1,1.2c0,0.2-0.1,0.5-0.4,0.5c-0.4,0-0.8,0.1-1.2,0.1
				c-0.1-0.6-0.1-1.1-0.2-1.7C236.8,212.3,237.3,212.3,237.9,212.2z"/>
			<path id="XMLID_1000_" class="st10" d="M233.2,212.1c-0.4,0-0.9,0.1-1.4,0.1c-0.1-0.6-0.1-1.1-0.2-1.7c0.6-0.1,1.1-0.1,1.7-0.2
				C233.3,211,233.7,211.6,233.2,212.1z"/>
			<path id="XMLID_999_" class="st10" d="M231.3,207.9c-0.1-0.6-0.1-1.1-0.2-1.7c0.6,0,1.1-0.1,1.7-0.1c0,0.6,0.3,1.2-0.1,1.8
				C232.2,207.8,231.8,207.9,231.3,207.9z"/>
			<path id="XMLID_998_" class="st10" d="M235.7,212.4c0.1,0.5,0.1,0.9,0.2,1.4c-0.4-0.1-0.3,0.1-0.2,0.4c-0.5,0-0.9,0.1-1.4,0.1
				c-0.1-0.6-0.1-1.1-0.2-1.7C234.6,212.5,235.1,212.4,235.7,212.4z"/>
			<path id="XMLID_997_" class="st10" d="M233.8,216.4c-0.5,0-1,0.1-1.5,0.1c-0.1-0.6-0.1-1.1-0.2-1.7c0.6,0,1.1-0.1,1.7-0.1
				c0.1,0.4,0.1,0.9,0.2,1.3C233.7,216,233.6,216.2,233.8,216.4z"/>
			<path id="XMLID_996_" class="st10" d="M237.4,207.9c0,0.6,0.3,1.2-0.2,1.7c-0.3,0-0.8,0.1-1.3,0.1c-0.1-0.6-0.1-1.1-0.2-1.7
				C236.3,208,236.8,207.9,237.4,207.9z"/>
			<path id="XMLID_995_" class="st10" d="M242.1,213.6c-0.4,0-0.9,0.1-1.4,0.1c-0.1-0.6-0.1-1.1-0.2-1.7c0.6,0,1.1-0.1,1.7-0.1
				C242.3,212.4,242.6,213,242.1,213.6z"/>
			<path id="XMLID_994_" class="st10" d="M235.8,216.3c-0.4,0-0.8,0.1-1.3,0.1c-0.1-0.6-0.1-1.1-0.2-1.7c0.6-0.1,1.1-0.1,1.7-0.2
				c0.1,0.5,0.1,0.9,0.1,1.2C236,216,235.9,216.1,235.8,216.3z"/>
			<path id="XMLID_993_" class="st10" d="M240.1,212c0,0.6,0.3,1.2-0.2,1.7c-0.4,0-0.8,0.1-1.4,0.1c-0.1-0.6-0.1-1.1-0.2-1.7
				C238.9,212.1,239.5,212.1,240.1,212z"/>
			<path id="XMLID_992_" class="st10" d="M231.2,210.6c0,0.6,0.3,1.2-0.2,1.7c-0.4,0-0.9,0.1-1.3,0.1c-0.1-0.6-0.1-1.1-0.2-1.7
				C230,210.7,230.6,210.6,231.2,210.6z"/>
			<path id="XMLID_991_" class="st10" d="M239.1,218.2c-0.1-0.6-0.1-1.1-0.2-1.7c0.6-0.1,1.1-0.1,1.7-0.2c0,0.6,0.3,1.2-0.2,1.7
				C240,218.1,239.5,218.1,239.1,218.2z"/>
			<path id="XMLID_990_" class="st10" d="M240.2,209.4c-0.1-0.6-0.1-1.1-0.2-1.7c0.6,0,1.1-0.1,1.7-0.1c0.1,0.4,0.1,0.9,0.2,1.3
				c-0.5-0.2-0.4,0.1-0.2,0.4C241.2,209.3,240.7,209.3,240.2,209.4z"/>
			<path id="XMLID_989_" class="st10" d="M236.4,218.1c-0.4-0.1-0.3,0.1-0.2,0.3c-0.5,0-0.9,0.1-1.4,0.1c-0.1-0.6-0.1-1.1-0.2-1.7
				c0.6,0,1.1-0.1,1.7-0.1C236.3,217.2,236.3,217.6,236.4,218.1z"/>
			<path id="XMLID_988_" class="st10" d="M235.4,205.9c0.6,0,1.1-0.1,1.6-0.1c0.1,0.4,0.1,0.9,0.2,1.3c-0.3,0-0.4,0.1-0.2,0.4
				c-0.5,0-0.9,0.1-1.4,0.1C235.6,207,235.5,206.4,235.4,205.9z"/>
			<path id="XMLID_987_" class="st10" d="M236.9,218.8c0.6-0.1,1.2-0.1,1.7-0.1c0.1,0.4,0.1,0.8,0.2,1.1c0.1,0.3-0.1,0.5-0.4,0.5
				c-0.4,0-0.8,0-1.2-0.1c-0.1,0-0.2-0.1-0.2-0.2C237,219.6,237,219.2,236.9,218.8z"/>
			<path id="XMLID_986_" class="st10" d="M242.9,213.5c-0.1-0.6-0.1-1.1-0.2-1.6c0.5-0.1,0.9-0.1,1.5-0.2c0.1,0.5,0.2,1.1,0.3,1.7
				C243.9,213.4,243.4,213.4,242.9,213.5z"/>
			<path id="XMLID_985_" class="st10" d="M241,216.3c0.6,0,1.2-0.1,1.7-0.1c0.3,1.1-0.3,1.8-1.5,1.8
				C241.1,217.4,241.1,216.9,241,216.3z"/>
			<path id="XMLID_984_" class="st10" d="M230,215c0.6,0,1.1-0.1,1.7-0.1c0.1,0.6,0.1,1.1,0.2,1.6C230.8,216.8,230,216.2,230,215z"
				/>
			<path id="XMLID_983_" class="st10" d="M243.3,216.4c0-0.1,0-0.2,0-0.3c-0.1-0.7-0.2-1.4-0.3-2.2c0.5,0,1-0.1,1.6-0.1
				c0,1.1-0.7,1.8-1.1,2.6C243.3,216.4,243.3,216.4,243.3,216.4z"/>
			<path id="XMLID_982_" class="st10" d="M235.2,203.9c0.5,0.1,0.9,0.2,1.3,0.3c0.3,0.1,0.5,0.2,0.5,0.6c0,0.2,0,0.4,0.1,0.6
				c-0.6,0-1.1,0.1-1.7,0.1C235.3,204.9,235.3,204.4,235.2,203.9z"/>
			<path id="XMLID_981_" class="st10" d="M242.4,209.6c0.9-0.1,0.9-0.1,1.2,0.6c0.1,0.3,0.3,0.6,0.4,1c-0.3,0-0.5,0.1-0.7,0.1
				c-0.2,0-0.4,0-0.7,0C242.6,210.8,242.5,210.2,242.4,209.6z"/>
			<path id="XMLID_980_" class="st10" d="M230.6,206.1c0.1,0.6,0.1,1,0.2,1.5c-0.3,0-0.4,0.1-0.2,0.4c-0.5,0-1,0.1-1.5,0.1
				c0-0.2,0-0.4,0.1-0.5C229.6,207.2,230.1,206.7,230.6,206.1z"/>
			<path id="XMLID_979_" class="st10" d="M234.7,219c0.7-0.1,1.2-0.1,1.8-0.2c0,0.4,0.1,0.8,0.1,1.3c-0.6-0.2-1.1-0.3-1.5-0.5
				C234.9,219.6,234.9,219.3,234.7,219z"/>
			<path id="XMLID_978_" class="st10" d="M239.1,218.6c0.6,0,1.1-0.1,1.6-0.1c0.2,0.3,0.1,0.5-0.2,0.7c-0.4,0.2-0.8,0.5-1.3,0.8
				C239.2,219.5,239.2,219.1,239.1,218.6z"/>
			<path id="XMLID_977_" class="st10" d="M228.1,210.8c0.3,0,0.6,0,0.9-0.1c0.1,0.6,0.1,1.1,0.2,1.7c-0.2,0-0.5,0-0.7,0.1
				C228.3,212,228.2,211.4,228.1,210.8z"/>
			<path id="XMLID_976_" class="st10" d="M228.1,210.4c0-0.5,0.1-0.9,0.1-1.3c0-0.4,0.2-0.5,0.6-0.5c0.1,0.5,0.1,1.1,0.2,1.7
				C228.6,210.4,228.4,210.4,228.1,210.4z"/>
			<path id="XMLID_975_" class="st10" d="M241.3,207.1c-0.4,0-0.9,0.1-1.3,0.1c-0.1-0.5-0.1-1-0.2-1.4c0,0,0.1,0,0.1-0.1
				c0.5,0.4,1,0.8,1.5,1.2C241.3,207.1,241.3,207.1,241.3,207.1z"/>
			<path id="XMLID_974_" class="st10" d="M231.1,205.7c0.5-0.5,1-1,1.5-1.5c0,0.5,0.3,1-0.3,1.4C232,205.7,231.6,205.7,231.1,205.7z
				"/>
			<path id="XMLID_973_" class="st10" d="M229.3,214.6c-0.2-0.5-0.5-1.1-0.8-1.6c0.3,0,0.5,0,0.7,0c0.1,0.6,0.1,1.1,0.2,1.7
				C229.4,214.6,229.3,214.6,229.3,214.6z"/>
			<path id="XMLID_972_" class="st10" d="M237.4,204.4c0.5,0.2,0.9,0.4,1.3,0.6c0,0,0,0.1,0,0.1c-0.4,0-0.8,0.1-1.2,0.1
				C237.5,205,237.4,204.7,237.4,204.4z"/>
			<path id="XMLID_971_" class="st10" d="M242.4,209.2c0-0.4-0.1-0.7-0.1-1c0,0,0.1,0,0.1,0c0.2,0.3,0.4,0.6,0.7,1
				C242.8,209.1,242.6,209.1,242.4,209.2z"/>
			<path id="XMLID_970_" class="st10" d="M231.9,217.1c0,0.2,0,0.4,0.1,0.7c-0.3-0.3-0.4-0.4-0.7-0.7
				C231.5,217.1,231.7,217.1,231.9,217.1z"/>
		</g>
	</g>
	<path id="XMLID_967_" class="st5" d="M235.5,99.1c0,0-0.7,4.5,1.2,4.8c0,0,10.3-7.7,14.7-8.2c4.3-0.5,19.8-1.5,21.7-2.8l-5-1.3
		c0,0-18.7,1.3-20.3,2.5c-1.7,1.2-9.3,8.2-10.2,8.3C236.7,102.4,235.8,102.4,235.5,99.1z"/>
	<path id="XMLID_966_" class="st5" d="M218.9,99.1c0,0,0.7,4.5-1.2,4.8c0,0-10.3-7.7-14.7-8.2c-4.3-0.5-19.8-1.5-21.7-2.8l5-1.3
		c0,0,18.7,1.3,20.3,2.5c1.7,1.2,9.3,8.2,10.2,8.3C217.7,102.4,218.5,102.4,218.9,99.1z"/>
	<circle id="XMLID_963_" class="st28" cx="243.6" cy="203.1" r="7.7"/>
	<rect id="XMLID_961_" x="468" y="265.7" class="st1" width="52" height="17"/>
</g>
</svg>
